<svg width="390" height="172" viewBox="0 0 390 172" fill="none" xmlns="http://www.w3.org/2000/svg">
<path opacity="0.3" fill-rule="evenodd" clip-rule="evenodd" d="M0 138.188L9 126.427C19 114.667 37 91.1453 56 88.2051C74 86.735 93 102.906 111 105.846C130 108.786 149 97.0256 167 91.1453C186 86.735 204 86.735 223 94.0855C241 102.906 260 120.547 279 120.547C297 120.547 316 102.906 334 80.8547C353 57.3333 371 29.4017 381 14.7009L390 0V172H381C371 172 353 172 334 172C316 172 297 172 279 172C260 172 241 172 223 172C204 172 186 172 167 172C149 172 130 172 111 172C93 172 74 172 56 172C37 172 19 172 9 172H0V138.188Z" fill="#0099FF"/>
</svg>
